{"asset":{"version":"2.0","generator":"VECTARY"},"nodes":[{"translation":[5.5649929109335975e-18,-5.684341886080802e-17,0.0375],"scale":[0.001,0.001,0.001],"rotation":[-0.8660254037844387,3.1282548362235952e-148,5.4182963153623244e-148,0.5000000000000002],"name":"Cylinder 2","mesh":0},{"translation":[0,0.07,1.4210854715202004e-17],"scale":[0.002,0.001,0.0013131313131313131],"rotation":[-0.7071067811865475,0,0,0.7071067811865476],"name":"Box 1","mesh":1},{"translation":[-0.07956357599377026,0.125,2.1316282072803006e-17],"scale":[0.0006443743843675924,0.0006443743843675924,0.0006443743843675924],"rotation":[-0.7071067811865475,0,0,0.7071067811865476],"name":"3D Text - W","mesh":2},{"translation":[-0.0527188384575188,0.125,2.1316282072803006e-17],"scale":[0.0006443743843675924,0.0006443743843675924,0.0006443743843675924],"rotation":[-0.7071067811865475,0,0,0.7071067811865476],"name":"3D Text - h","mesh":3},{"translation":[-0.0349214570845926,0.125,2.1316282072803006e-17],"scale":[0.0006443743843675924,0.0006443743843675924,0.0006443743843675924],"rotation":[-0.7071067811865475,0,0,0.7071067811865476],"name":"3D Text - i","mesh":4},{"translation":[-0.027587293559393093,0.125,2.1316282072803006e-17],"scale":[0.0006443743843675924,0.0006443743843675924,0.0006443743843675924],"rotation":[-0.7071067811865475,0,0,0.7071067811865476],"name":"3D Text - t","mesh":5},{"translation":[-0.01735061358117062,0.125,2.1316282072803006e-17],"scale":[0.0006443743843675924,0.0006443743843675924,0.0006443743843675924],"rotation":[-0.7071067811865475,0,0,0.7071067811865476],"name":"3D Text - e","mesh":6},{"translation":[-0.0010823628273979816,0.125,2.1316282072803006e-17],"scale":[0.0006443743843675924,0.0006443743843675924,0.0006443743843675924],"rotation":[-0.7071067811865475,0,0,0.7071067811865476],"name":"3D Text - b","mesh":7},{"translation":[0.01668670131184019,0.125,2.1316282072803006e-17],"scale":[0.0006443743843675924,0.0006443743843675924,0.0006443743843675924],"rotation":[-0.7071067811865475,0,0,0.7071067811865476],"name":"3D Text - o","mesh":8},{"translation":[0.03420091034788611,0.125,2.1316282072803006e-17],"scale":[0.0006443743843675924,0.0006443743843675924,0.0006443743843675924],"rotation":[-0.7071067811865475,0,0,0.7071067811865476],"name":"3D Text - a","mesh":9},{"translation":[0.0503275749332186,0.125,2.1316282072803006e-17],"scale":[0.0006443743843675924,0.0006443743843675924,0.0006443743843675924],"rotation":[-0.7071067811865475,0,0,0.7071067811865476],"name":"3D Text - r","mesh":10},{"translation":[0.06216417861481472,0.125,2.1316282072803006e-17],"scale":[0.0006443743843675924,0.0006443743843675924,0.0006443743843675924],"rotation":[-0.7071067811865475,0,0,0.7071067811865476],"name":"3D Text - d","mesh":11},{"translation":[0.04999999999999999,-5.3290705182007515e-18,-0.02500000000000001],"scale":[0.001,0.001,0.001],"rotation":[-0.5880183863281625,-0.20533495396307272,0.15755905175128304,0.7663204807600038],"name":"Cylinder 1","mesh":12},{"translation":[-0.04999999999999995,-3.907985046680551e-17,-0.024999999999999998],"scale":[0.001,0.001,0.001],"rotation":[-0.5880183863281625,0.20533495396307272,-0.15755905175128304,0.7663204807600038],"name":"Cylinder","mesh":13},{"translation":[0,0.075,1.4210854715202004e-17],"scale":[0.001,0.001,0.001],"rotation":[-0.7071067811865475,0,0,0.7071067811865476],"name":"Box","mesh":14}],"materials":[{"pbrMetallicRoughness":{"baseColorFactor":[0.36360389792055325,0.06772458968542432,0,1],"metallicFactor":0,"roughnessFactor":0.2},"name":"Little Valley 2","emissiveFactor":[0,0,0],"extensions":{},"alphaMode":"OPAQUE","doubleSided":false},{"pbrMetallicRoughness":{"baseColorFactor":[0.20835965596076741,0.07805658995810189,0.0012017395224384016,1],"metallicFactor":0,"roughnessFactor":0.2},"name":"Refresh","emissiveFactor":[0,0,0],"extensions":{},"alphaMode":"OPAQUE","doubleSided":false},{"pbrMetallicRoughness":{"baseColorFactor":[0.000005077051900661759,0.0009923743040743253,0.17343903633213503,1],"metallicFactor":0,"roughnessFactor":0.2},"name":"Vienna","emissiveFactor":[0,0,0],"extensions":{},"alphaMode":"OPAQUE","doubleSided":false},{"pbrMetallicRoughness":{"baseColorFactor":[0.000005077051900661759,0.0009923743040743253,0.17343903633213503,1],"metallicFactor":0,"roughnessFactor":0.2},"name":"Vienna0","emissiveFactor":[0,0,0],"extensions":{},"alphaMode":"OPAQUE","doubleSided":false},{"pbrMetallicRoughness":{"baseColorFactor":[0.000005077051900661759,0.0009923743040743253,0.17343903633213503,1],"metallicFactor":0,"roughnessFactor":0.2},"name":"Vienna1","emissiveFactor":[0,0,0],"extensions":{},"alphaMode":"OPAQUE","doubleSided":false},{"pbrMetallicRoughness":{"baseColorFactor":[0.000005077051900661759,0.0009923743040743253,0.17343903633213503,1],"metallicFactor":0,"roughnessFactor":0.2},"name":"Vienna2","emissiveFactor":[0,0,0],"extensions":{},"alphaMode":"OPAQUE","doubleSided":false},{"pbrMetallicRoughness":{"baseColorFactor":[0.000005077051900661759,0.0009923743040743253,0.17343903633213503,1],"metallicFactor":0,"roughnessFactor":0.2},"name":"Vienna3","emissiveFactor":[0,0,0],"extensions":{},"alphaMode":"OPAQUE","doubleSided":false},{"pbrMetallicRoughness":{"baseColorFactor":[0.000005077051900661759,0.0009923743040743253,0.17343903633213503,1],"metallicFactor":0,"roughnessFactor":0.2},"name":"Vienna4","emissiveFactor":[0,0,0],"extensions":{},"alphaMode":"OPAQUE","doubleSided":false},{"pbrMetallicRoughness":{"baseColorFactor":[0.000005077051900661759,0.0009923743040743253,0.17343903633213503,1],"metallicFactor":0,"roughnessFactor":0.2},"name":"Vienna5","emissiveFactor":[0,0,0],"extensions":{},"alphaMode":"OPAQUE","doubleSided":false},{"pbrMetallicRoughness":{"baseColorFactor":[0.000005077051900661759,0.0009923743040743253,0.17343903633213503,1],"metallicFactor":0,"roughnessFactor":0.2},"name":"Vienna6","emissiveFactor":[0,0,0],"extensions":{},"alphaMode":"OPAQUE","doubleSided":false},{"pbrMetallicRoughness":{"baseColorFactor":[0.000005077051900661759,0.0009923743040743253,0.17343903633213503,1],"metallicFactor":0,"roughnessFactor":0.2},"name":"Vienna7","emissiveFactor":[0,0,0],"extensions":{},"alphaMode":"OPAQUE","doubleSided":false},{"pbrMetallicRoughness":{"baseColorFactor":[0.000005077051900661759,0.0009923743040743253,0.17343903633213503,1],"metallicFactor":0,"roughnessFactor":0.2},"name":"Vienna8","emissiveFactor":[0,0,0],"extensions":{},"alphaMode":"OPAQUE","doubleSided":false},{"pbrMetallicRoughness":{"baseColorFactor":[0.36360389792055325,0.06772458968542432,0,1],"metallicFactor":0,"roughnessFactor":0.2},"name":"Little Valley 1","emissiveFactor":[0,0,0],"extensions":{},"alphaMode":"OPAQUE","doubleSided":false},{"pbrMetallicRoughness":{"baseColorFactor":[0.36360389792055325,0.06772458968542432,0,1],"metallicFactor":0,"roughnessFactor":0.2},"name":"Little Valley","emissiveFactor":[0,0,0],"extensions":{},"alphaMode":"OPAQUE","doubleSided":false},{"pbrMetallicRoughness":{"baseColorFactor":[1,1,1,1],"metallicFactor":0,"roughnessFactor":0.2},"name":"City Day","emissiveFactor":[0,0,0],"extensions":{},"alphaMode":"OPAQUE","doubleSided":false}],"meshes":[{"primitives":[{"mode":4,"attributes":{"POSITION":1,"NORMAL":2,"TEXCOORD_0":3},"material":0,"indices":0}]},{"primitives":[{"mode":4,"attributes":{"POSITION":5,"NORMAL":6,"TEXCOORD_0":7},"material":1,"indices":4}]},{"primitives":[{"mode":4,"attributes":{"POSITION":9,"NORMAL":10,"TEXCOORD_0":11},"material":2,"indices":8}]},{"primitives":[{"mode":4,"attributes":{"POSITION":13,"NORMAL":14,"TEXCOORD_0":15},"material":3,"indices":12}]},{"primitives":[{"mode":4,"attributes":{"POSITION":17,"NORMAL":18,"TEXCOORD_0":19},"material":4,"indices":16}]},{"primitives":[{"mode":4,"attributes":{"POSITION":21,"NORMAL":22,"TEXCOORD_0":23},"material":5,"indices":20}]},{"primitives":[{"mode":4,"attributes":{"POSITION":25,"NORMAL":26,"TEXCOORD_0":27},"material":6,"indices":24}]},{"primitives":[{"mode":4,"attributes":{"POSITION":29,"NORMAL":30,"TEXCOORD_0":31},"material":7,"indices":28}]},{"primitives":[{"mode":4,"attributes":{"POSITION":33,"NORMAL":34,"TEXCOORD_0":35},"material":8,"indices":32}]},{"primitives":[{"mode":4,"attributes":{"POSITION":37,"NORMAL":38,"TEXCOORD_0":39},"material":9,"indices":36}]},{"primitives":[{"mode":4,"attributes":{"POSITION":41,"NORMAL":42,"TEXCOORD_0":43},"material":10,"indices":40}]},{"primitives":[{"mode":4,"attributes":{"POSITION":45,"NORMAL":46,"TEXCOORD_0":47},"material":11,"indices":44}]},{"primitives":[{"mode":4,"attributes":{"POSITION":49,"NORMAL":50,"TEXCOORD_0":51},"material":12,"indices":48}]},{"primitives":[{"mode":4,"attributes":{"POSITION":53,"NORMAL":54,"TEXCOORD_0":55},"material":13,"indices":52}]},{"primitives":[{"mode":4,"attributes":{"POSITION":57,"NORMAL":58,"TEXCOORD_0":59},"material":14,"indices":56}]}],"accessors":[{"bufferView":0,"byteOffset":0,"componentType":5125,"count":6912,"type":"SCALAR"},{"bufferView":1,"byteOffset":0,"componentType":5126,"count":1302,"max":[6.400000095367432,6.400000095367432,100],"min":[-6.400000095367432,-6.400000095367432,0],"type":"VEC3"},{"bufferView":2,"byteOffset":0,"componentType":5126,"count":1302,"type":"VEC3"},{"bufferView":3,"byteOffset":0,"componentType":5126,"count":1302,"type":"VEC2"},{"bufferView":4,"byteOffset":0,"componentType":5125,"count":2916,"type":"SCALAR"},{"bufferView":5,"byteOffset":0,"componentType":5126,"count":596,"max":[50,5.5,99],"min":[-50,-5.5,0],"type":"VEC3"},{"bufferView":6,"byteOffset":0,"componentType":5126,"count":596,"type":"VEC3"},{"bufferView":7,"byteOffset":0,"componentType":5126,"count":596,"type":"VEC2"},{"bufferView":8,"byteOffset":0,"componentType":5125,"count":564,"type":"SCALAR"},{"bufferView":9,"byteOffset":0,"componentType":5126,"count":382,"max":[45.60499954223633,2.1855658677570914e-15,35.69300079345703],"min":[0.6589999794960022,-15,0],"type":"VEC3"},{"bufferView":10,"byteOffset":0,"componentType":5126,"count":382,"type":"VEC3"},{"bufferView":11,"byteOffset":0,"componentType":5126,"count":382,"type":"VEC2"},{"bufferView":12,"byteOffset":0,"componentType":5125,"count":636,"type":"SCALAR"},{"bufferView":13,"byteOffset":0,"componentType":5126,"count":426,"max":[26.65999984741211,2.326094139420737e-15,37.987998962402344],"min":[4.296999931335449,-15,0],"type":"VEC3"},{"bufferView":14,"byteOffset":0,"componentType":5126,"count":426,"type":"VEC3"},{"bufferView":15,"byteOffset":0,"componentType":5126,"count":426,"type":"VEC2"},{"bufferView":16,"byteOffset":0,"componentType":5125,"count":504,"type":"SCALAR"},{"bufferView":17,"byteOffset":0,"componentType":5126,"count":338,"max":[8.739999771118164,2.2468595011610176e-15,36.694000244140625],"min":[3.9549999237060547,-15,0],"type":"VEC3"},{"bufferView":18,"byteOffset":0,"componentType":5126,"count":338,"type":"VEC3"},{"bufferView":19,"byteOffset":0,"componentType":5126,"count":338,"type":"VEC2"},{"bufferView":20,"byteOffset":0,"componentType":5125,"count":552,"type":"SCALAR"},{"bufferView":21,"byteOffset":0,"componentType":5126,"count":368,"max":[16.601999282836914,2.018156581995857e-15,32.95899963378906],"min":[0.7570000290870667,-15,-0.4880000054836273],"type":"VEC3"},{"bufferView":22,"byteOffset":0,"componentType":5126,"count":368,"type":"VEC3"},{"bufferView":23,"byteOffset":0,"componentType":5126,"count":368,"type":"VEC2"},{"bufferView":24,"byteOffset":0,"componentType":5125,"count":948,"type":"SCALAR"},{"bufferView":25,"byteOffset":0,"componentType":5126,"count":630,"max":[25.43899917602539,1.6683363158236856e-15,27.246000289916992],"min":[2.808000087738037,-15,-0.4880000054836273],"type":"VEC3"},{"bufferView":26,"byteOffset":0,"componentType":5126,"count":630,"type":"VEC3"},{"bufferView":27,"byteOffset":0,"componentType":5126,"count":630,"type":"VEC2"},{"bufferView":28,"byteOffset":0,"componentType":5125,"count":1044,"type":"SCALAR"},{"bufferView":29,"byteOffset":0,"componentType":5126,"count":698,"max":[27.856000900268555,2.326094139420737e-15,37.987998962402344],"min":[4.296999931335449,-15,-0.4880000054836273],"type":"VEC3"},{"bufferView":30,"byteOffset":0,"componentType":5126,"count":698,"type":"VEC3"},{"bufferView":31,"byteOffset":0,"componentType":5126,"count":698,"type":"VEC2"},{"bufferView":32,"byteOffset":0,"componentType":5125,"count":1020,"type":"SCALAR"},{"bufferView":33,"byteOffset":0,"componentType":5126,"count":680,"max":[27.39299964904785,1.6683363158236856e-15,27.246000289916992],"min":[2.808000087738037,-15,-0.4880000054836273],"type":"VEC3"},{"bufferView":34,"byteOffset":0,"componentType":5126,"count":680,"type":"VEC3"},{"bufferView":35,"byteOffset":0,"componentType":5126,"count":680,"type":"VEC2"},{"bufferView":36,"byteOffset":0,"componentType":5125,"count":1188,"type":"SCALAR"},{"bufferView":37,"byteOffset":0,"componentType":5126,"count":793,"max":[23.7549991607666,1.6653360192453925e-15,27.19700050354004],"min":[2.2950000762939453,-15,-0.4880000054836273],"type":"VEC3"},{"bufferView":38,"byteOffset":0,"componentType":5126,"count":793,"type":"VEC3"},{"bufferView":39,"byteOffset":0,"componentType":5126,"count":793,"type":"VEC2"},{"bufferView":40,"byteOffset":0,"componentType":5125,"count":432,"type":"SCALAR"},{"bufferView":41,"byteOffset":0,"componentType":5126,"count":289,"max":[19.70199966430664,1.6683363158236856e-15,27.246000289916992],"min":[4.296999931335449,-15,0],"type":"VEC3"},{"bufferView":42,"byteOffset":0,"componentType":5126,"count":289,"type":"VEC3"},{"bufferView":43,"byteOffset":0,"componentType":5126,"count":289,"type":"VEC2"},{"bufferView":44,"byteOffset":0,"componentType":5125,"count":960,"type":"SCALAR"},{"bufferView":45,"byteOffset":0,"componentType":5126,"count":642,"max":[26.343000411987305,2.326094139420737e-15,37.987998962402344],"min":[2.808000087738037,-15,-0.4880000054836273],"type":"VEC3"},{"bufferView":46,"byteOffset":0,"componentType":5126,"count":642,"type":"VEC3"},{"bufferView":47,"byteOffset":0,"componentType":5126,"count":642,"type":"VEC2"},{"bufferView":48,"byteOffset":0,"componentType":5125,"count":6912,"type":"SCALAR"},{"bufferView":49,"byteOffset":0,"componentType":5126,"count":1302,"max":[6.400000095367432,6.400000095367432,100],"min":[-6.400000095367432,-6.400000095367432,0],"type":"VEC3"},{"bufferView":50,"byteOffset":0,"componentType":5126,"count":1302,"type":"VEC3"},{"bufferView":51,"byteOffset":0,"componentType":5126,"count":1302,"type":"VEC2"},{"bufferView":52,"byteOffset":0,"componentType":5125,"count":6912,"type":"SCALAR"},{"bufferView":53,"byteOffset":0,"componentType":5126,"count":1302,"max":[6.400000095367432,6.400000095367432,100],"min":[-6.400000095367432,-6.400000095367432,0],"type":"VEC3"},{"bufferView":54,"byteOffset":0,"componentType":5126,"count":1302,"type":"VEC3"},{"bufferView":55,"byteOffset":0,"componentType":5126,"count":1302,"type":"VEC2"},{"bufferView":56,"byteOffset":0,"componentType":5125,"count":2700,"type":"SCALAR"},{"bufferView":57,"byteOffset":0,"componentType":5126,"count":556,"max":[96,8.5,120],"min":[-96,-8.5,0],"type":"VEC3"},{"bufferView":58,"byteOffset":0,"componentType":5126,"count":556,"type":"VEC3"},{"bufferView":59,"byteOffset":0,"componentType":5126,"count":556,"type":"VEC2"}],"bufferViews":[{"buffer":0,"byteOffset":0,"byteLength":27648,"target":34963},{"buffer":0,"byteOffset":27648,"byteLength":15624,"target":34962},{"buffer":0,"byteOffset":43272,"byteLength":15624,"target":34962},{"buffer":0,"byteOffset":58896,"byteLength":10416,"target":34962},{"buffer":0,"byteOffset":69312,"byteLength":11664,"target":34963},{"buffer":0,"byteOffset":80976,"byteLength":7152,"target":34962},{"buffer":0,"byteOffset":88128,"byteLength":7152,"target":34962},{"buffer":0,"byteOffset":95280,"byteLength":4768,"target":34962},{"buffer":0,"byteOffset":100048,"byteLength":2256,"target":34963},{"buffer":0,"byteOffset":102304,"byteLength":4584,"target":34962},{"buffer":0,"byteOffset":106888,"byteLength":4584,"target":34962},{"buffer":0,"byteOffset":111472,"byteLength":3056,"target":34962},{"buffer":0,"byteOffset":114528,"byteLength":2544,"target":34963},{"buffer":0,"byteOffset":117072,"byteLength":5112,"target":34962},{"buffer":0,"byteOffset":122184,"byteLength":5112,"target":34962},{"buffer":0,"byteOffset":127296,"byteLength":3408,"target":34962},{"buffer":0,"byteOffset":130704,"byteLength":2016,"target":34963},{"buffer":0,"byteOffset":132720,"byteLength":4056,"target":34962},{"buffer":0,"byteOffset":136776,"byteLength":4056,"target":34962},{"buffer":0,"byteOffset":140832,"byteLength":2704,"target":34962},{"buffer":0,"byteOffset":143536,"byteLength":2208,"target":34963},{"buffer":0,"byteOffset":145744,"byteLength":4416,"target":34962},{"buffer":0,"byteOffset":150160,"byteLength":4416,"target":34962},{"buffer":0,"byteOffset":154576,"byteLength":2944,"target":34962},{"buffer":0,"byteOffset":157520,"byteLength":3792,"target":34963},{"buffer":0,"byteOffset":161312,"byteLength":7560,"target":34962},{"buffer":0,"byteOffset":168872,"byteLength":7560,"target":34962},{"buffer":0,"byteOffset":176432,"byteLength":5040,"target":34962},{"buffer":0,"byteOffset":181472,"byteLength":4176,"target":34963},{"buffer":0,"byteOffset":185648,"byteLength":8376,"target":34962},{"buffer":0,"byteOffset":194024,"byteLength":8376,"target":34962},{"buffer":0,"byteOffset":202400,"byteLength":5584,"target":34962},{"buffer":0,"byteOffset":207984,"byteLength":4080,"target":34963},{"buffer":0,"byteOffset":212064,"byteLength":8160,"target":34962},{"buffer":0,"byteOffset":220224,"byteLength":8160,"target":34962},{"buffer":0,"byteOffset":228384,"byteLength":5440,"target":34962},{"buffer":0,"byteOffset":233824,"byteLength":4752,"target":34963},{"buffer":0,"byteOffset":238576,"byteLength":9516,"target":34962},{"buffer":0,"byteOffset":248092,"byteLength":9516,"target":34962},{"buffer":0,"byteOffset":257608,"byteLength":6344,"target":34962},{"buffer":0,"byteOffset":263952,"byteLength":1728,"target":34963},{"buffer":0,"byteOffset":265680,"byteLength":3468,"target":34962},{"buffer":0,"byteOffset":269148,"byteLength":3468,"target":34962},{"buffer":0,"byteOffset":272616,"byteLength":2312,"target":34962},{"buffer":0,"byteOffset":274928,"byteLength":3840,"target":34963},{"buffer":0,"byteOffset":278768,"byteLength":7704,"target":34962},{"buffer":0,"byteOffset":286472,"byteLength":7704,"target":34962},{"buffer":0,"byteOffset":294176,"byteLength":5136,"target":34962},{"buffer":0,"byteOffset":299312,"byteLength":27648,"target":34963},{"buffer":0,"byteOffset":326960,"byteLength":15624,"target":34962},{"buffer":0,"byteOffset":342584,"byteLength":15624,"target":34962},{"buffer":0,"byteOffset":358208,"byteLength":10416,"target":34962},{"buffer":0,"byteOffset":368624,"byteLength":27648,"target":34963},{"buffer":0,"byteOffset":396272,"byteLength":15624,"target":34962},{"buffer":0,"byteOffset":411896,"byteLength":15624,"target":34962},{"buffer":0,"byteOffset":427520,"byteLength":10416,"target":34962},{"buffer":0,"byteOffset":437936,"byteLength":10800,"target":34963},{"buffer":0,"byteOffset":448736,"byteLength":6672,"target":34962},{"buffer":0,"byteOffset":455408,"byteLength":6672,"target":34962},{"buffer":0,"byteOffset":462080,"byteLength":4448,"target":34962}],"scene":0,"scenes":[{"nodes":[0,1,2,3,4,5,6,7,8,9,10,11,12,13,14],"name":"Project Name"}],"extensionsUsed":["KHR_texture_transform"],"buffers":[{"byteLength":466528,"uri":"ProjectName.bin"}]}